<svg xmlns="http://www.w3.org/2000/svg" xmlns:xlink="http://www.w3.org/1999/xlink" width="375" viewBox="0 0 375 375" height="375" version="1.0"><defs><g id="a"><path d="M 22.285156 -11.332031 C 18.597656 -11.492188 14.910156 -11.332031 11.277344 -11.007812 C 11.542969 -13.039062 11.863281 -15.070312 12.132812 -17.101562 C 13.949219 -17.101562 15.765625 -17.050781 17.582031 -16.835938 C 19.773438 -16.621094 21.589844 -18.8125 21.589844 -20.84375 C 21.589844 -23.195312 19.773438 -24.636719 17.582031 -24.851562 C 16.195312 -25.011719 14.804688 -25.066406 13.359375 -25.121094 C 13.683594 -27.148438 14.054688 -29.234375 14.375 -31.320312 C 17.101562 -31.320312 19.773438 -31.210938 22.5 -31.050781 C 27.632812 -30.675781 27.632812 -38.695312 22.5 -39.066406 C 18.652344 -39.335938 14.75 -39.390625 10.902344 -39.230469 C 9.40625 -39.230469 8.335938 -38.480469 7.695312 -37.464844 C 7.429688 -37.039062 7.214844 -36.503906 7.109375 -35.914062 C 5.34375 -26.082031 3.902344 -16.246094 2.671875 -6.414062 C 2.296875 -3.527344 5.503906 -2.191406 7.75 -2.511719 C 12.558594 -3.3125 17.421875 -3.527344 22.285156 -3.3125 C 27.417969 -3.101562 27.417969 -11.117188 22.285156 -11.332031 Z M 22.285156 -11.332031"/></g><g id="b"><path d="M 23.515625 -32.335938 C 22.660156 -26.5625 21.644531 -20.84375 20.578125 -15.125 L 15.820312 -25.972656 C 14.429688 -29.289062 9.351562 -28.113281 8.496094 -25.011719 C 6.253906 -16.675781 4.328125 -8.285156 2.726562 0.214844 C 1.765625 5.238281 9.511719 7.429688 10.476562 2.351562 C 11.332031 -2.351562 12.347656 -7 13.414062 -11.652344 C 15.125 -7.75 16.78125 -3.847656 18.492188 0 C 19.882812 3.207031 25.121094 2.246094 25.8125 -0.910156 C 27.953125 -10.636719 29.769531 -20.363281 31.210938 -30.195312 C 31.960938 -35.273438 24.210938 -37.410156 23.515625 -32.335938 Z M 23.515625 -32.335938"/></g><g id="c"><path d="M 22.875 -37.304688 C 21.964844 -32.761719 21.21875 -28.113281 20.578125 -23.515625 L 13.148438 -23.515625 C 13.253906 -24.691406 13.414062 -25.8125 13.523438 -26.9375 C 13.84375 -29.394531 13.789062 -32.335938 14.644531 -34.632812 C 16.460938 -39.441406 8.710938 -41.582031 6.894531 -36.769531 C 6.039062 -34.363281 6.039062 -31.425781 5.773438 -28.914062 C 5.398438 -26.082031 5.078125 -23.25 4.757812 -20.414062 C 4.0625 -14.535156 3.367188 -8.65625 2.671875 -2.777344 C 2.085938 2.296875 10.101562 2.246094 10.6875 -2.777344 C 11.171875 -7.054688 11.703125 -11.277344 12.183594 -15.5 L 19.5625 -15.5 C 19.1875 -12.183594 18.867188 -8.820312 18.597656 -5.503906 C 18.226562 -0.375 26.242188 -0.375 26.617188 -5.503906 C 27.363281 -15.5 28.699219 -25.386719 30.625 -35.167969 C 31.585938 -40.242188 23.890625 -42.382812 22.875 -37.304688 Z M 22.875 -37.304688"/></g><g id="d"><path d="M 27.632812 -23.355469 C 27.472656 -28.003906 27.363281 -40.191406 19.453125 -36.824219 C 14.324219 -34.632812 10.421875 -27.953125 8.230469 -23.089844 C 5.34375 -16.621094 3.953125 -9.726562 2.726562 -2.726562 C 1.816406 2.296875 9.511719 4.488281 10.421875 -0.589844 C 10.902344 -3.3125 11.382812 -5.984375 11.972656 -8.65625 L 19.988281 -8.390625 C 20.09375 -6.253906 20.148438 -4.117188 20.203125 -1.976562 C 20.308594 3.152344 28.324219 3.152344 28.164062 -1.976562 C 28.003906 -9.085938 27.898438 -16.246094 27.632812 -23.355469 Z M 14.214844 -16.621094 C 14.324219 -16.886719 14.429688 -17.210938 14.535156 -17.476562 C 15.445312 -19.882812 16.621094 -22.179688 18.011719 -24.316406 C 18.492188 -25.066406 19.027344 -25.707031 19.5625 -26.402344 C 19.613281 -25.332031 19.5625 -24.265625 19.613281 -23.355469 C 19.722656 -21.058594 19.773438 -18.707031 19.828125 -16.40625 C 17.957031 -16.460938 16.085938 -16.515625 14.214844 -16.621094 Z M 14.214844 -16.621094"/></g><g id="e"><path d="M 23.730469 -12.828125 C 18.492188 -11.332031 9.351562 -10.847656 10.796875 -18.917969 C 11.757812 -24.425781 16.886719 -28.914062 22.5 -28.433594 C 27.632812 -28.058594 27.632812 -36.074219 22.5 -36.449219 C 12.292969 -37.25 3.152344 -28.003906 2.671875 -18.0625 C 2.40625 -12.988281 4.808594 -8.230469 9.300781 -5.71875 C 14.429688 -2.777344 20.46875 -3.582031 25.867188 -5.078125 C 30.835938 -6.46875 28.753906 -14.214844 23.730469 -12.828125 Z M 23.730469 -12.828125"/></g><g id="f"><path d="M 22.285156 -11.277344 C 18.597656 -11.382812 14.910156 -11.277344 11.277344 -10.902344 C 11.542969 -12.933594 11.863281 -14.964844 12.132812 -17.050781 C 13.949219 -17.050781 15.765625 -16.941406 17.582031 -16.78125 C 19.773438 -16.566406 21.589844 -18.757812 21.589844 -20.789062 C 21.589844 -23.140625 19.773438 -24.585938 17.582031 -24.796875 C 16.195312 -24.90625 14.804688 -25.011719 13.359375 -25.011719 C 13.683594 -27.097656 14.054688 -29.179688 14.375 -31.210938 C 17.101562 -31.210938 19.773438 -31.160156 22.5 -30.945312 C 27.632812 -30.625 27.632812 -38.640625 22.5 -38.960938 C 18.652344 -39.230469 14.75 -39.28125 10.902344 -39.175781 C 9.40625 -39.121094 8.335938 -38.375 7.695312 -37.410156 C 7.429688 -36.984375 7.214844 -36.449219 7.109375 -35.808594 C 5.34375 -26.027344 3.902344 -16.195312 2.671875 -6.304688 C 2.296875 -3.472656 5.503906 -2.085938 7.75 -2.457031 C 12.558594 -3.207031 17.421875 -3.421875 22.285156 -3.261719 C 27.417969 -3.046875 27.417969 -11.0625 22.285156 -11.277344 Z M 22.285156 -11.277344"/></g><g id="g"><path d="M 23.089844 -33.027344 C 19.773438 -36.023438 15.820312 -37.410156 11.542969 -38.214844 C 11.117188 -38.320312 10.636719 -38.375 10.207031 -38.480469 C 7.644531 -38.90625 4.277344 -38.960938 4.0625 -35.648438 C 3.367188 -25.921875 2.941406 -16.195312 2.671875 -6.46875 C 2.617188 -4.757812 4.0625 -3.207031 5.71875 -2.992188 C 6.949219 -2.777344 8.230469 -3.152344 9.460938 -3.527344 C 13.734375 -4.96875 18.917969 -6.628906 22.394531 -9.566406 C 25.546875 -12.292969 27.898438 -15.925781 28.378906 -20.09375 C 28.96875 -25.066406 26.722656 -29.769531 23.089844 -33.027344 Z M 20.09375 -19.613281 C 18.597656 -15.390625 14.75 -13.84375 10.796875 -12.558594 C 11.007812 -18.386719 11.332031 -24.210938 11.652344 -29.984375 C 16.621094 -28.914062 22.179688 -25.441406 20.09375 -19.613281 Z M 20.09375 -19.613281"/></g><g id="h"><path d="M 21.589844 -36.503906 C 18.332031 -37.785156 14.484375 -38.320312 11.171875 -37.089844 C 7.375 -35.648438 6.039062 -32.441406 5.613281 -28.648438 C 4.488281 -19.078125 3.632812 -9.460938 2.671875 0.105469 C 2.136719 5.238281 10.15625 5.238281 10.6875 0.105469 C 11.117188 -3.953125 11.492188 -8.015625 11.917969 -12.023438 C 18.867188 -10.421875 26.828125 -12.988281 30.035156 -19.773438 C 33.5625 -27.148438 28.378906 -33.777344 21.589844 -36.503906 Z M 12.773438 -20.148438 C 12.933594 -21.644531 13.039062 -23.195312 13.199219 -24.691406 C 13.308594 -25.8125 13.148438 -27.683594 13.628906 -28.648438 C 14.109375 -29.660156 13.523438 -29.449219 14.699219 -29.769531 C 17.421875 -30.570312 23.460938 -27.523438 23.195312 -24.425781 C 22.820312 -19.507812 16.300781 -19.078125 12.773438 -20.148438 Z M 12.773438 -20.148438"/></g><g id="i"><path d="M 23.515625 -17.261719 C 19.347656 -16.941406 15.230469 -16.355469 11.171875 -15.445312 C 11.863281 -22.074219 12.507812 -28.648438 13.148438 -35.21875 C 13.628906 -40.351562 5.613281 -40.296875 5.128906 -35.21875 C 4.328125 -26.882812 3.472656 -18.546875 2.671875 -10.207031 C 2.40625 -7.589844 5.453125 -5.664062 7.75 -6.359375 C 12.933594 -7.855469 18.171875 -8.820312 23.515625 -9.246094 C 28.648438 -9.621094 28.699219 -17.636719 23.515625 -17.261719 Z M 23.515625 -17.261719"/></g><g id="j"><path d="M 31.210938 -30.304688 C 30.570312 -35.378906 22.554688 -35.433594 23.195312 -30.304688 C 23.945312 -24.476562 23.089844 -14.644531 16.835938 -11.703125 C 10.101562 -8.496094 10.582031 -27.683594 10.796875 -30.835938 C 11.171875 -35.96875 3.152344 -35.96875 2.777344 -30.835938 C 2.136719 -21.804688 3.101562 -1.070312 17.15625 -3.421875 C 28.539062 -5.34375 32.441406 -20.683594 31.210938 -30.304688 Z M 31.210938 -30.304688"/></g><g id="k"><path d="M 24.265625 -22.234375 C 20.363281 -22.179688 12.878906 -21.804688 15.070312 -15.660156 C 16.246094 -12.292969 20.363281 -12.292969 22.179688 -14.214844 C 22.445312 -14.214844 22.714844 -14.214844 22.929688 -14.214844 C 23.035156 -14.214844 23.140625 -14.214844 23.195312 -14.214844 C 23.140625 -13.84375 23.140625 -13.46875 23.035156 -13.308594 C 22.765625 -12.558594 22.339844 -11.917969 21.804688 -11.382812 C 19.1875 -8.710938 12.878906 -10.207031 11.277344 -13.523438 C 7.910156 -20.523438 16.085938 -34.257812 24.476562 -31.320312 C 29.339844 -29.609375 31.480469 -37.359375 26.617188 -39.066406 C 7.269531 -45.800781 -8.445312 -8.980469 12.773438 -2.941406 C 17.15625 -1.710938 21.914062 -1.550781 25.707031 -4.222656 C 29.179688 -6.679688 31.320312 -10.847656 31.53125 -15.070312 C 31.691406 -19.988281 29.019531 -22.339844 24.265625 -22.234375 Z M 24.265625 -22.234375"/></g><g id="l"><path d="M 5.078125 -32.867188 C 4.007812 -23.25 3.207031 -13.574219 2.671875 -3.847656 C 2.351562 1.28125 10.367188 1.28125 10.6875 -3.847656 C 11.222656 -13.574219 12.023438 -23.25 13.09375 -32.867188 C 13.628906 -38 5.613281 -37.945312 5.078125 -32.867188 Z M 5.078125 -32.867188"/></g><g id="m"><path d="M 19.882812 -23.089844 C 18.492188 -23.996094 15.285156 -24.851562 14.644531 -26.5625 C 13.683594 -29.179688 17.261719 -31.050781 19.078125 -31.851562 C 23.730469 -34.042969 19.667969 -40.992188 15.019531 -38.800781 C 7.855469 -35.433594 2.886719 -25.867188 10.046875 -19.722656 C 12.558594 -17.476562 17.53125 -16.621094 18.0625 -12.71875 C 18.277344 -11.007812 17.476562 -9.511719 15.980469 -8.871094 C 14.964844 -8.390625 11.222656 -7.804688 10.367188 -8.980469 C 7.269531 -13.039062 0.320312 -9.085938 3.421875 -4.96875 C 9.726562 3.367188 24.796875 -0.105469 25.972656 -10.847656 C 26.507812 -15.710938 23.945312 -20.363281 19.882812 -23.089844 Z M 19.882812 -23.089844"/></g></defs><g fill="#3066BE"><use x="28.035" y="177.784" xmlns:xlink="http://www.w3.org/1999/xlink" xlink:href="#a" xlink:type="simple" xlink:actuate="onLoad" xlink:show="embed"/></g><g><use x="57.051" y="177.784" xmlns:xlink="http://www.w3.org/1999/xlink" xlink:href="#b" xlink:type="simple" xlink:actuate="onLoad" xlink:show="embed"/></g><g><use x="91.037" y="177.784" xmlns:xlink="http://www.w3.org/1999/xlink" xlink:href="#c" xlink:type="simple" xlink:actuate="onLoad" xlink:show="embed"/></g><g><use x="124.436" y="177.784" xmlns:xlink="http://www.w3.org/1999/xlink" xlink:href="#d" xlink:type="simple" xlink:actuate="onLoad" xlink:show="embed"/></g><g><use x="155.322" y="177.784" xmlns:xlink="http://www.w3.org/1999/xlink" xlink:href="#b" xlink:type="simple" xlink:actuate="onLoad" xlink:show="embed"/></g><g><use x="189.309" y="177.784" xmlns:xlink="http://www.w3.org/1999/xlink" xlink:href="#e" xlink:type="simple" xlink:actuate="onLoad" xlink:show="embed"/></g><g><use x="220.73" y="177.784" xmlns:xlink="http://www.w3.org/1999/xlink" xlink:href="#f" xlink:type="simple" xlink:actuate="onLoad" xlink:show="embed"/></g><g><use x="249.746" y="177.784" xmlns:xlink="http://www.w3.org/1999/xlink" xlink:href="#g" xlink:type="simple" xlink:actuate="onLoad" xlink:show="embed"/></g><g fill="#60AFFF"><use x="141.428" y="232.466" xmlns:xlink="http://www.w3.org/1999/xlink" xlink:href="#h" xlink:type="simple" xlink:actuate="onLoad" xlink:show="embed"/></g><g><use x="175.307" y="232.466" xmlns:xlink="http://www.w3.org/1999/xlink" xlink:href="#i" xlink:type="simple" xlink:actuate="onLoad" xlink:show="embed"/></g><g><use x="205.392" y="232.466" xmlns:xlink="http://www.w3.org/1999/xlink" xlink:href="#j" xlink:type="simple" xlink:actuate="onLoad" xlink:show="embed"/></g><g><use x="239.485" y="232.466" xmlns:xlink="http://www.w3.org/1999/xlink" xlink:href="#k" xlink:type="simple" xlink:actuate="onLoad" xlink:show="embed"/></g><g><use x="273.685" y="232.466" xmlns:xlink="http://www.w3.org/1999/xlink" xlink:href="#l" xlink:type="simple" xlink:actuate="onLoad" xlink:show="embed"/></g><g><use x="289.503" y="232.466" xmlns:xlink="http://www.w3.org/1999/xlink" xlink:href="#b" xlink:type="simple" xlink:actuate="onLoad" xlink:show="embed"/></g><g><use x="323.489" y="232.466" xmlns:xlink="http://www.w3.org/1999/xlink" xlink:href="#m" xlink:type="simple" xlink:actuate="onLoad" xlink:show="embed"/></g></svg>